<svg xmlns="http://www.w3.org/2000/svg" width="34" height="33" viewBox="0 0 34 33">
  <defs>
    <style>
      .cls-1 {
        fill: #fff;
        fill-rule: evenodd;
      }
    </style>
  </defs>
  <path id="icon1" class="cls-1" d="M467.121,6015.51a0.526,0.526,0,0,0-.748.08,8.887,8.887,0,0,1-.618.7,8.166,8.166,0,0,1-1.491,1.18,0.534,0.534,0,0,0,.279.99,0.477,0.477,0,0,0,.278-0.08,8.675,8.675,0,0,0,1.687-1.34,8.783,8.783,0,0,0,.7-0.78A0.535,0.535,0,0,0,467.121,6015.51Zm1.539-5.54a0.536,0.536,0,0,0-.533.54,8.2,8.2,0,0,1-.644,3.21,0.533,0.533,0,0,0,.282.7,0.52,0.52,0,0,0,.208.05,0.542,0.542,0,0,0,.49-0.33,9.3,9.3,0,0,0,.729-3.63A0.535,0.535,0,0,0,468.66,6009.97Zm3.549-.85a5.255,5.255,0,0,0-.888.08v-1.01h1.172a0.533,0.533,0,0,0,.532-0.53v-3.14a0.533,0.533,0,0,0-.532-0.53H447.507a0.533,0.533,0,0,0-.532.53v3.14a0.533,0.533,0,0,0,.532.53h1.171v1.01a5.243,5.243,0,0,0-.887-0.08,4.81,4.81,0,1,0,3.244,8.35,11.34,11.34,0,0,0,7.013,4.24v4.68a11.411,11.411,0,0,0-6.591,3.72,0.546,0.546,0,0,0-.085.58,0.531,0.531,0,0,0,.485.31h16.286a0.531,0.531,0,0,0,.485-0.31,0.546,0.546,0,0,0-.085-0.58,11.408,11.408,0,0,0-6.591-3.72v-4.68a11.34,11.34,0,0,0,7.013-4.24A4.8,4.8,0,1,0,472.209,6009.12Zm-24.169-2v-2.06h23.92v2.06H448.04Zm24.169,5.35a1.46,1.46,0,1,1-1.447,1.59q0.156-.48.272-0.99A1.44,1.44,0,0,1,472.209,6012.47Zm-22.971,1.59a1.456,1.456,0,1,1-.272-0.99Q449.082,6013.58,449.238,6014.06Zm-1.447,3.61a3.74,3.74,0,0,1,0-7.48,3.308,3.308,0,0,1,.887.11v0.21c0,0.36.018,0.71,0.051,1.07a2.47,2.47,0,0,0-.938-0.18,2.53,2.53,0,1,0,2.01,4.06,10.463,10.463,0,0,0,.617,1.12A3.689,3.689,0,0,1,447.791,6017.67Zm19.077,12.26H453.132a10.272,10.272,0,0,1,5.517-2.55,0.53,0.53,0,0,0,.464-0.53v-4.97h1.774v4.97a0.529,0.529,0,0,0,.463.53A10.272,10.272,0,0,1,466.868,6029.93Zm1.6-13.6h0a10.25,10.25,0,0,1-16.943,0h0a10.144,10.144,0,0,1-1.247-2.51,9.99,9.99,0,0,1-.3-1.09h0a10.333,10.333,0,0,1-.239-2.22v-2.32h20.514v2.32a10.333,10.333,0,0,1-.239,2.22h0a9.99,9.99,0,0,1-.3,1.09A10.144,10.144,0,0,1,468.472,6016.33Zm3.737,1.34a3.687,3.687,0,0,1-2.627-1.09,10.463,10.463,0,0,0,.617-1.12,2.5,2.5,0,0,0,2.01,1,2.53,2.53,0,0,0,0-5.06,2.467,2.467,0,0,0-.938.18c0.033-.36.05-0.71,0.05-1.07v-0.21a3.32,3.32,0,0,1,.888-0.11A3.74,3.74,0,0,1,472.209,6017.67Zm-7.164-4.77a0.526,0.526,0,0,0-.5-0.36h-3.034l-1.009-2.78a0.527,0.527,0,0,0-1,0l-1.009,2.78h-3.034a0.533,0.533,0,0,0-.331.95l2.564,2.05-0.759,2.8a0.533,0.533,0,0,0,.84.56l2.229-1.74,2.228,1.74a0.562,0.562,0,0,0,.327.11,0.533,0.533,0,0,0,.514-0.67l-0.76-2.8,2.565-2.05A0.53,0.53,0,0,0,465.045,6012.9Zm-3.673,2.02a0.534,0.534,0,0,0-.182.56l0.431,1.59-1.294-1.01a0.541,0.541,0,0,0-.654,0l-1.3,1.01,0.432-1.59a0.533,0.533,0,0,0-.183-0.56l-1.644-1.31h1.881a0.534,0.534,0,0,0,.5-0.35L460,6011.5l0.635,1.76a0.534,0.534,0,0,0,.5.35h1.881Zm0.048-15.49h-0.888v-0.9a0.532,0.532,0,0,0-1.064,0v0.9H458.58a0.535,0.535,0,0,0,0,1.07h0.888v0.89a0.532,0.532,0,0,0,1.064,0v-0.89h0.888A0.535,0.535,0,0,0,461.42,5999.43Zm7.949,0h-0.887v-0.9a0.533,0.533,0,0,0-1.065,0v0.9H466.53a0.535,0.535,0,0,0,0,1.07h0.887v0.89a0.533,0.533,0,0,0,1.065,0v-0.89h0.887A0.535,0.535,0,0,0,469.369,5999.43Zm-15.332,0H453.15v-0.9a0.533,0.533,0,0,0-1.065,0v0.9H451.2a0.535,0.535,0,0,0,0,1.07h0.887v0.89a0.533,0.533,0,0,0,1.065,0v-0.89h0.887A0.535,0.535,0,0,0,454.037,5999.43Z" transform="translate(-443 -5998)"/>
</svg>
