<svg xmlns="http://www.w3.org/2000/svg" width="34" height="34" viewBox="0 0 34 34">
  <defs>
    <style>
      .cls-1 {
        fill: #fff;
        fill-rule: evenodd;
      }
    </style>
  </defs>
  <path id="icon4" class="cls-1" d="M1075.3,6025.22a27.885,27.885,0,0,0-8.29-3.18l0.24-.33a0.459,0.459,0,0,0,.12-0.46l-0.53-2.12a12.173,12.173,0,0,0,2.23-6.83v-2.27h1.7a0.525,0.525,0,0,0,.56-0.56,0.533,0.533,0,0,0-.56-0.57h-0.57v-0.57a9.863,9.863,0,0,0-7.37-9.52v-0.11a1.7,1.7,0,0,0-1.7-1.7h-2.26a1.7,1.7,0,0,0-1.7,1.7v0.11a9.863,9.863,0,0,0-7.37,9.52v0.57h-0.57a0.533,0.533,0,0,0-.56.57,0.525,0.525,0,0,0,.56.56h1.7v2.27a12.173,12.173,0,0,0,2.23,6.83l-0.53,2.12a0.669,0.669,0,0,0,.12.46l0.24,0.33a27.885,27.885,0,0,0-8.29,3.18,3.013,3.013,0,0,0-1.7,2.78v2.43a0.541,0.541,0,0,0,.57.57h32.86a0.541,0.541,0,0,0,.57-0.57V6028A3.25,3.25,0,0,0,1075.3,6025.22Zm-15.64-.52,0.34-.78,0.85,1.87,0.55,1.24h-2.76Zm-1.45,3.47h3.58l0.32,1.7h-4.24Zm7.74-7.94,0.23,1.02-0.58.8a0.357,0.357,0,0,0-.1.11l-2.36,3.26-0.75,1.03-1.53-3.44a8.222,8.222,0,0,0,4.78-2.45c0.01-.02.03-0.03,0.04-0.05a0.01,0.01,0,0,0,.01-0.01C1065.78,6020.41,1065.86,6020.32,1065.95,6020.23Zm-0.74-19.08c0.06,0.04.13,0.08,0.19,0.12a9.875,9.875,0,0,1,1.91,1.85l-2.61.51Zm-9.91,2.48-2.61-.51a9.875,9.875,0,0,1,1.91-1.85c0.06-.04.13-0.08,0.19-0.12Zm-4.37,4.7a8.564,8.564,0,0,1,1.07-4.17l3.92,0.77h0.11a1.288,1.288,0,0,0,.46-0.11,0.466,0.466,0,0,0,.17-0.51l-0.78-3.79a10.457,10.457,0,0,1,1.29-.5v1.51a0.533,0.533,0,0,0,.56.57,0.541,0.541,0,0,0,.57-0.57v-2.83a0.576,0.576,0,0,1,.57-0.57h2.26a0.569,0.569,0,0,1,.57.57v2.83a0.541,0.541,0,0,0,.57.57,0.533,0.533,0,0,0,.56-0.57v-1.51a9.188,9.188,0,0,1,1.33.52l-0.76,3.71a0.8,0.8,0,0,0,.17.51,0.5,0.5,0,0,0,.4.17h0.11l3.89-.82a8.563,8.563,0,0,1,1.1,4.22v0.57h-18.14v-0.57h0Zm1.14,1.7h15.86v2.27a10.41,10.41,0,0,1-2.12,6.34l-0.03.01c-0.06.05-.11,0.11-0.17,0.17a11.6,11.6,0,0,1-.9,1.04,7.29,7.29,0,0,1-4.46,2.07,0.534,0.534,0,0,0-.25-0.05,0.471,0.471,0,0,0-.24.05,6.518,6.518,0,0,1-2.81-.85,9.285,9.285,0,0,1-2.56-2.26c-0.06-.06-0.11-0.12-0.17-0.17l-0.03-.01a10.41,10.41,0,0,1-2.12-6.34v-2.27h0Zm7.07,12.98-1.53,3.44-0.75-1.03-2.36-3.26a0.1,0.1,0,0,0-.06-0.05l-0.62-.86,0.23-1.02c0.08,0.09.15,0.17,0.23,0.25A8.175,8.175,0,0,0,1059.14,6023.01Zm-15.01,4.99a1.95,1.95,0,0,1,1.08-1.76c3.61-1.92,6.21-2.88,8.53-3.17l3.38,4.65-0.43,2.15h-12.56V6028Zm31.74,1.87h-12.56l-0.43-2.15,3.42-4.7a27.658,27.658,0,0,1,8.49,3.16,2.11,2.11,0,0,1,1.08,1.82v1.87Z" transform="translate(-1043 -5997)"/>
</svg>
