<svg xmlns="http://www.w3.org/2000/svg" width="34" height="34" viewBox="0 0 34 34">
  <defs>
    <style>
      .cls-1 {
        fill: #fff;
        fill-rule: evenodd;
      }
    </style>
  </defs>
  <path id="icon3" class="cls-1" d="M869.574,6023.52a2.186,2.186,0,0,0,0,3.17,2.243,2.243,0,0,0,3.173-3.17A2.185,2.185,0,0,0,869.574,6023.52Zm2.38,2.44a1.135,1.135,0,1,1,0-1.59A1.1,1.1,0,0,1,871.954,6025.96Zm4.646-1.76L866.4,6014l4.023-4.02h0l2.379-2.38h0l3.456-3.46a2.493,2.493,0,0,0,0-3.51l-2.89-2.89a2.455,2.455,0,0,0-3.513,0l-3.456,3.45-2.38,2.38L860,6007.6l-10.086-10.09a1.754,1.754,0,0,0-2.379,0l-4.023,4.02a1.643,1.643,0,0,0,0,2.38l1.19,1.19h0l3.229,3.23h0l3.173,3.18h0L853.6,6014l-9.1,9.1a0.552,0.552,0,0,0-.31.42l-1.19,6.8a0.68,0.68,0,0,0,.17.51,0.524,0.524,0,0,0,.4.17h0.114l6.536-1.21a0.689,0.689,0,0,0,.15.02,0.447,0.447,0,0,0,.4-0.17L860,6020.4l0.737,0.74h0l1.586,1.59h0l7.876,7.87a1.3,1.3,0,0,0,.963.4,1.112,1.112,0,0,0,.907-0.4l4.533-4.53A1.334,1.334,0,0,0,876.6,6024.2Zm-26.234,4.19-1.983-1.98,18.839-18.79,1.955,1.96Zm20.284-29.86a1.4,1.4,0,0,1,1.927,0l2.889,2.89a1.409,1.409,0,0,1,0,1.93l-3.059,3.06-4.816-4.82Zm-3.853,3.85,2.409,2.41,2.408,2.41-1.587,1.59-4.816-4.82Zm-12.89,10.34,1.218-1.21a0.563,0.563,0,0,0-.793-0.8l-1.218,1.22-0.822-.82,1.983-1.98a0.563,0.563,0,1,0-.793-0.8l-1.983,1.99-0.793-.8,1.19-1.19a0.56,0.56,0,1,0-.794-0.79l-1.19,1.19-0.793-.79,1.983-1.99a0.56,0.56,0,0,0-.793-0.79l-1.983,1.98-0.85-.85,1.19-1.19a0.56,0.56,0,1,0-.793-0.79l-1.19,1.19-0.794-.79,1.984-1.99a0.56,0.56,0,0,0-.794-0.79l-1.983,1.98-0.793-.79a0.543,0.543,0,0,1,0-.79l4.023-4.03a0.526,0.526,0,0,1,.4-0.17,0.628,0.628,0,0,1,.4.17l10.086,10.09-4.816,4.82Zm10.511-7.9,1.982,1.98-18.838,18.79-1.956-1.96Zm-19.265,19.95,1.859,1.86a0.718,0.718,0,0,0,.124.18l2.048,2.04-4.881.85Zm30.654,0.51-4.533,4.53a0.247,0.247,0,0,1-.284,0l-5.864-5.87,2.011-2.01a0.56,0.56,0,1,0-.793-0.79l-2.011,2.01-0.822-.82,1.19-1.19a0.56,0.56,0,0,0-.793-0.79l-1.19,1.19-0.794-.8,1.984-1.98a0.56,0.56,0,1,0-.794-0.79l-1.983,1.98-0.34-.34,4.816-4.82,10.2,10.2A0.271,0.271,0,0,1,875.807,6025.28Z" transform="translate(-843 -5997)"/>
</svg>
