<svg xmlns="http://www.w3.org/2000/svg" width="26" height="34" viewBox="0 0 26 34">
  <defs>
    <style>
      .cls-1 {
        fill: #fff;
        fill-rule: evenodd;
      }
    </style>
  </defs>
  <path id="icon6" class="cls-1" d="M1464.93,5997H1447v34h26v-25.73Zm0.33,1.93,5.85,6h-5.85v-6Zm-17.15,30.94v-31.74h16.04v7.94h7.74v23.8h-23.78Zm4.42-23.24h4.98a0.565,0.565,0,0,0,0-1.13h-4.98A0.565,0.565,0,0,0,1452.53,6006.63Zm0,4.54h2.77a0.57,0.57,0,0,0,0-1.14h-2.77A0.57,0.57,0,0,0,1452.53,6011.17Zm8.3,0h3.87a0.57,0.57,0,0,0,0-1.14h-3.87A0.57,0.57,0,0,0,1460.83,6011.17Zm-3.16-.97a0.58,0.58,0,0,0,0,.8,0.6,0.6,0,0,0,.39.17,0.561,0.561,0,0,0,.4-0.17,0.6,0.6,0,0,0,.16-0.4A0.555,0.555,0,0,0,1457.67,6010.2Zm9.8,0.97a0.581,0.581,0,0,0,.39-0.17,0.6,0.6,0,0,0,.16-0.4,0.576,0.576,0,0,0-.16-0.4,0.562,0.562,0,0,0-.78,0,0.585,0.585,0,0,0-.17.4,0.6,0.6,0,0,0,.17.4A0.561,0.561,0,0,0,1467.47,6011.17Zm-8.3,3.4h-3.87a0.565,0.565,0,0,0,0,1.13h3.87A0.565,0.565,0,0,0,1459.17,6014.57Zm-6.64,1.13a0.552,0.552,0,0,0,.39-0.16,0.567,0.567,0,0,0,0-.81,0.562,0.562,0,0,0-.78,0,0.551,0.551,0,0,0-.16.4,0.62,0.62,0,0,0,.16.41A0.57,0.57,0,0,0,1452.53,6015.7Zm1.74,4.06a3.778,3.778,0,0,0-1.77,3.16c-0.23-.19-0.45-0.39-0.68-0.59-0.55-.46-1.33.34-0.79,0.81,0.52,0.44,1.04.88,1.56,1.33a0.558,0.558,0,0,0,.94-0.4c0.04-1.23.1-2.69,1.3-3.33A0.565,0.565,0,0,0,1454.27,6019.76Zm3.68,2.26c-0.77.18-1.64,1.18-2.18,0.06-0.31-.65-1.27-0.08-0.95.57a1.918,1.918,0,0,0,1.47,1.1,1.892,1.892,0,0,0,.94-0.13c0.22-.09,1.07-0.74,1.25-0.41a0.558,0.558,0,0,0,.96-0.57A1.313,1.313,0,0,0,1457.95,6022.02Zm11.31-5.46a0.406,0.406,0,0,1-.21-0.2,0.39,0.39,0,0,1,.01-0.3,1.506,1.506,0,0,0-.28-1.7,1.421,1.421,0,0,0-1.66-.29,0.316,0.316,0,0,1-.29,0,0.342,0.342,0,0,1-.2-0.21,1.45,1.45,0,0,0-2.75,0,0.342,0.342,0,0,1-.2.21,0.316,0.316,0,0,1-.29,0,1.421,1.421,0,0,0-1.66.29,1.506,1.506,0,0,0-.28,1.7,0.39,0.39,0,0,1,.01.3,0.406,0.406,0,0,1-.21.2,1.51,1.51,0,0,0,0,2.82,0.345,0.345,0,0,1,.21.2,0.365,0.365,0,0,1-.01.29,1.5,1.5,0,0,0,1.04,2.12v6.98l2.77-2.84,2.76,2.84v-6.98a1.5,1.5,0,0,0,1.04-2.12,0.365,0.365,0,0,1-.01-0.29,0.345,0.345,0,0,1,.21-0.2A1.51,1.51,0,0,0,1469.26,6016.56Zm-4,7.97-1.66,1.7v-4.39h0.01a0.145,0.145,0,0,1,.07.02,0.266,0.266,0,0,1,.1.06,0.4,0.4,0,0,1,.1.15,1.445,1.445,0,0,0,2.75,0,0.4,0.4,0,0,1,.1-0.15,0.266,0.266,0,0,1,.1-0.06,0.145,0.145,0,0,1,.07-0.02h0.01v4.39Zm3.63-6.22a1.466,1.466,0,0,0-.86.83,1.564,1.564,0,0,0,.03,1.22,0.333,0.333,0,0,1-.07.41,0.323,0.323,0,0,1-.31.1l-0.12-.04a0.88,0.88,0,0,0-.15-0.05,0.564,0.564,0,0,0-.12-0.04,0.881,0.881,0,0,0-.17-0.02,0.507,0.507,0,0,0-.13-0.02c-0.05,0-.11.01-0.16,0.01s-0.09.01-.14,0.02a0.985,0.985,0,0,0-.28.08h-0.01c-0.02.01-.04,0.03-0.06,0.04-0.07.04-.14,0.07-0.2,0.11a1.241,1.241,0,0,0-.21.18l-0.02.02a1.506,1.506,0,0,0-.32.53,0.354,0.354,0,0,1-.67,0,1.506,1.506,0,0,0-.32-0.53l-0.01-.01a2,2,0,0,0-.22-0.19c-0.06-.04-0.12-0.07-0.19-0.11a0.594,0.594,0,0,0-.08-0.04h0c-0.01,0-.02-0.01-0.03-0.01a1.027,1.027,0,0,0-.25-0.07,0.648,0.648,0,0,0-.2-0.02,0.17,0.17,0,0,0-.07-0.01h-0.01a1.237,1.237,0,0,0-.58.13l-0.12.04a0.343,0.343,0,0,1-.32-0.1,0.333,0.333,0,0,1-.07-0.41,1.564,1.564,0,0,0,.03-1.22,1.466,1.466,0,0,0-.86-0.83,0.364,0.364,0,0,1-.24-0.34,0.348,0.348,0,0,1,.24-0.34,1.516,1.516,0,0,0,.83-2.06,0.357,0.357,0,0,1,.47-0.48,1.444,1.444,0,0,0,2-.85,0.354,0.354,0,0,1,.67,0,1.457,1.457,0,0,0,.82.88,1.429,1.429,0,0,0,1.18-.03,0.332,0.332,0,0,1,.4.07,0.342,0.342,0,0,1,.07.41,1.612,1.612,0,0,0-.03,1.22,1.511,1.511,0,0,0,.86.84,0.348,0.348,0,0,1,.24.34A0.364,0.364,0,0,1,1468.89,6018.31Z" transform="translate(-1447 -5997)"/>
</svg>
