<svg xmlns="http://www.w3.org/2000/svg" width="34" height="34" viewBox="0 0 34 34">
  <defs>
    <style>
      .cls-1 {
        fill: #fff;
        fill-rule: evenodd;
      }
    </style>
  </defs>
  <path id="icon2" class="cls-1" d="M671.9,6023.07a2.83,2.83,0,1,0,2.833,2.83A2.835,2.835,0,0,0,671.9,6023.07Zm0,4.53a1.7,1.7,0,1,1,1.7-1.7A1.7,1.7,0,0,1,671.9,6027.6Zm3.967-4.9v-18.9a1.129,1.129,0,0,0-1.134-1.13h-5.666a1.129,1.129,0,0,0-1.134,1.13v15.3a0.572,0.572,0,0,0,.567.57h1.133a0.57,0.57,0,0,0,0-1.14h-0.566v-1.13h0.566a0.565,0.565,0,1,0,0-1.13h-0.566v-1.14h1.7a0.565,0.565,0,1,0,0-1.13h-1.7v-1.13h0.566a0.57,0.57,0,0,0,0-1.14h-0.566v-1.13h0.566a0.565,0.565,0,1,0,0-1.13h-0.566v-1.14h0.566a0.565,0.565,0,1,0,0-1.13h-0.566v-1.13h1.7a0.57,0.57,0,0,0,0-1.14h-1.7v-1.13h5.666v17.86a5.1,5.1,0,0,0-7.071,7.07h-15.6v-5.66H653.2v1.7a0.567,0.567,0,0,0,1.133,0v-1.7h1.134v0.56a0.567,0.567,0,1,0,1.133,0v-0.56h1.133v0.56a0.567,0.567,0,1,0,1.134,0v-0.56H660v0.56a0.567,0.567,0,1,0,1.133,0v-0.56h1.134v1.7a0.567,0.567,0,0,0,1.133,0v-1.7h1.133v0.56a0.567,0.567,0,1,0,1.134,0v-1.13a0.572,0.572,0,0,0-.567-0.57H652.067a1.1,1.1,0,0,0-1.134,1.14v5.66a1.1,1.1,0,0,0,1.134,1.14H668.7A5.1,5.1,0,0,0,675.867,6022.7Zm-3.967,7.17a3.97,3.97,0,1,1,3.967-3.97A3.973,3.973,0,0,1,671.9,6029.87Zm0.567-28.9a0.565,0.565,0,0,0-.567-0.57H649.8a3.4,3.4,0,0,0-6.8,0v27.2a3.4,3.4,0,0,0,3.4,3.4h2.833a0.565,0.565,0,1,0,0-1.13H646.4a2.27,2.27,0,1,1,2.267-2.27,0.567,0.567,0,1,0,1.133,0v-26.07h22.1A0.563,0.563,0,0,0,672.467,6000.97Zm-23.8,24.1a3.389,3.389,0,0,0-4.534,0V6000.4a2.267,2.267,0,1,1,4.534,0v24.67Zm16.032-20.3a0.566,0.566,0,1,0,.8-0.8l-1.133-1.14a0.627,0.627,0,0,0-.185-0.12,0.543,0.543,0,0,0-.433,0,0.623,0.623,0,0,0-.184.12l-1.133,1.14a0.566,0.566,0,1,0,.8.8l0.166-.17v13.13l-0.166-.16a0.551,0.551,0,0,0-.8,0,0.564,0.564,0,0,0,0,.8l1.133,1.13a0.623,0.623,0,0,0,.184.12,0.494,0.494,0,0,0,.433,0,0.627,0.627,0,0,0,.185-0.12l1.133-1.13a0.566,0.566,0,0,0,0-.8,0.551,0.551,0,0,0-.8,0l-0.167.16V6004.6Z" transform="translate(-643 -5997)"/>
</svg>
