<svg xmlns="http://www.w3.org/2000/svg" width="33.97" height="34" viewBox="0 0 33.97 34">
  <defs>
    <style>
      .cls-1 {
        fill: #fff;
        fill-rule: evenodd;
      }
    </style>
  </defs>
  <path id="icon5" class="cls-1" d="M1251.09,6013.95a41.59,41.59,0,0,0,2.77,6.03l0.09,0.14c0.73,1.1,1.95,2.95,6.05,2.95s5.32-1.85,6.05-2.95l0.09-.14a41.59,41.59,0,0,0,2.77-6.03,1.7,1.7,0,0,0,1.29-1.65v-2.27a1.691,1.691,0,0,0-1.13-1.6v-2.93c0-2.24-1.18-6.37-5.54-6.77a1.384,1.384,0,0,0-.19-0.64c-0.56-.9-2.13-1.09-3.34-1.09-10.08,0-10.2,9.54-10.2,9.63a0.563,0.563,0,0,0,.57.57h0a0.561,0.561,0,0,0,.56-0.57c0.01-.34.13-8.5,9.07-8.5,1.6,0,2.24.35,2.37,0.56,0.02,0.02.07,0.1-.04,0.32a0.563,0.563,0,0,0,.5.82c5.03,0,5.1,5.44,5.1,5.67v3.4a0.576,0.576,0,0,0,.57.57,0.568,0.568,0,0,1,.57.56v2.27a0.576,0.576,0,0,1-.57.57,0.554,0.554,0,0,0-.53.36,44.4,44.4,0,0,1-2.78,6.12l-0.09.14c-0.68,1.03-1.61,2.44-5.1,2.44s-4.42-1.41-5.1-2.44l-0.09-.14a44.4,44.4,0,0,1-2.78-6.12,0.554,0.554,0,0,0-.53-0.36,0.576,0.576,0,0,1-.57-0.57v-2.27a0.561,0.561,0,0,1,.17-0.39,1.557,1.557,0,0,0,1.33.95l1.94,1.45a2.263,2.263,0,0,0,2.23,1.96h1.13a2.27,2.27,0,0,1,4.54,0h1.13a2.281,2.281,0,0,0,2.24-1.96l2.07-1.55a0.573,0.573,0,0,0,.11-0.8,0.561,0.561,0,0,0-.79-0.11l-1.45,1.08a1.68,1.68,0,0,0-1.61-1.19h-2.27a1.7,1.7,0,0,1-3.4,0h-2.27a1.68,1.68,0,0,0-1.61,1.19l-1.08-.81a15.514,15.514,0,0,0,.96-3.79c1.79-.03,6.95-0.25,9.25-1.68a9.71,9.71,0,0,0,2.28,3.79,0.567,0.567,0,0,0,.8,0,0.55,0.55,0,0,0,0-.8c-0.02-.03-2.1-2.13-2.1-4.14a0.566,0.566,0,0,0-1.05-.29c-0.82,1.38-6.18,1.99-9.71,1.99a0.57,0.57,0,0,0-.57.57,12.977,12.977,0,0,1-.9,3.89,0.543,0.543,0,0,1-.23-0.49,0.576,0.576,0,0,0-.57-0.57,1.7,1.7,0,0,0-1.7,1.7v2.27A1.7,1.7,0,0,0,1251.09,6013.95Zm10.04-2.78a0.57,0.57,0,0,1,.57-0.57h2.27a0.561,0.561,0,0,1,.56.57v0.56a1.131,1.131,0,0,1-1.13,1.14h-1.13a1.139,1.139,0,0,1-1.14-1.14v-0.56h0Zm-5.66,0a0.561,0.561,0,0,1,.56-0.57h2.27a0.57,0.57,0,0,1,.57.57v0.56a1.139,1.139,0,0,1-1.14,1.14h-1.13a1.137,1.137,0,0,1-1.13-1.14v-0.56h0Zm7.36,6.23a0.568,0.568,0,0,0-.56-0.57,5.178,5.178,0,0,1-2.02-.5,0.551,0.551,0,0,0-.5,0,5.178,5.178,0,0,1-2.02.5,0.57,0.57,0,0,0,0,1.14,5.307,5.307,0,0,1,4.54,0A0.568,0.568,0,0,0,1262.83,6017.4Zm-3.4,1.13a0.57,0.57,0,0,0,0,1.14h1.14a0.57,0.57,0,0,0,0-1.14h-1.14Zm17.55,11.76-0.58-2.3c-0.84-2.54-4.85-3.77-12.26-3.77h-0.17a0.568,0.568,0,0,0-.56.46l-1.13,5.64a0.566,0.566,0,1,0,1.11.22l1.04-5.18c6.49,0.03,10.26,1.06,10.89,2.94l0.56,2.27a0.574,0.574,0,0,0,.55.43,0.675,0.675,0,0,0,.14-0.02A0.562,0.562,0,0,0,1276.98,6030.29Zm-20.39-5.64a0.569,0.569,0,0,0-.56-0.45c-7.72,0-11.56,1.17-12.44,3.83l-0.57,2.26a0.562,0.562,0,0,0,.41.69,0.675,0.675,0,0,0,.14.02,0.574,0.574,0,0,0,.55-0.43l0.55-2.23c0.66-1.98,4.23-2.96,10.9-3.01l1.04,5.21a0.566,0.566,0,1,0,1.11-.22Zm3.41-.45a1.693,1.693,0,0,0-.57,3.29v2.94a0.57,0.57,0,0,0,1.14,0v-2.94A1.693,1.693,0,0,0,1260,6024.2Zm0,2.27a0.57,0.57,0,1,1,.57-0.57A0.576,0.576,0,0,1,1260,6026.47Z" transform="translate(-1243 -5997)"/>
</svg>
