<svg xmlns="http://www.w3.org/2000/svg" width="32" height="34" viewBox="0 0 32 34">
  <defs>
    <style>
      .cls-1 {
        fill: #323840;
        fill-rule: evenodd;
      }
    </style>
  </defs>
  <path id="icon6" class="cls-1" d="M1024.26,1561.94h-0.04v-0.63a2.33,2.33,0,0,0-2.34-2.31H1000.5a2.33,2.33,0,0,0-2.342,2.31v0.63h-0.037a1.734,1.734,0,0,0-1.745,1.72v0.63h-0.037A2.323,2.323,0,0,0,994,1566.6v4.7a2.323,2.323,0,0,0,2.339,2.31h13.071a1.225,1.225,0,0,1,1.22,1.22v1.21H1010a1.731,1.731,0,0,0-1.74,1.72v12.34a2.93,2.93,0,0,0,5.86,0v-12.34a1.731,1.731,0,0,0-1.74-1.72h-0.64v-1.21a2.324,2.324,0,0,0-2.33-2.32H996.339a1.217,1.217,0,0,1-1.225-1.21v-4.7a1.217,1.217,0,0,1,1.225-1.21h0.037v0.62a1.742,1.742,0,0,0,1.745,1.73h0.037v0.62a2.332,2.332,0,0,0,2.342,2.32h21.38a2.332,2.332,0,0,0,2.34-2.32v-0.62h0.04a1.739,1.739,0,0,0,1.74-1.73v-2.35A1.731,1.731,0,0,0,1024.26,1561.94Zm-13.07,29.96a1.81,1.81,0,0,1-1.82-1.8v-10.61h3.64v10.61A1.816,1.816,0,0,1,1011.19,1591.9Zm1.82-14.14v0.63h-3.64v-0.63a0.625,0.625,0,0,1,.63-0.62h2.38A0.632,0.632,0,0,1,1013.01,1577.76Zm-14.889-11.12a0.629,0.629,0,0,1-.631-0.63v-2.35a0.627,0.627,0,0,1,.631-0.62h0.037v3.6h-0.037Zm24.979,1.72a1.225,1.225,0,0,1-1.22,1.22H1000.5a1.227,1.227,0,0,1-1.229-1.22v-7.05a1.225,1.225,0,0,1,1.229-1.21h21.38a1.223,1.223,0,0,1,1.22,1.21v7.05Zm1.79-2.35a0.634,0.634,0,0,1-.63.63h-0.04v-3.6h0.04a0.632,0.632,0,0,1,.63.62v2.35Zm-13.7,23.54a0.6,0.6,0,0,0-.4.16,0.552,0.552,0,0,0-.16.39,0.57,0.57,0,0,0,.16.39,0.6,0.6,0,0,0,.4.16,0.57,0.57,0,0,0,.39-0.16,0.528,0.528,0,0,0,.16-0.39,0.513,0.513,0,0,0-.16-0.39A0.57,0.57,0,0,0,1011.19,1589.55Z" transform="translate(-994 -1559)"/>
</svg>
