<svg xmlns="http://www.w3.org/2000/svg" width="34" height="29" viewBox="0 0 34 29">
  <defs>
    <style>
      .cls-1 {
        fill: #323840;
        fill-rule: evenodd;
      }
    </style>
  </defs>
  <path id="icon3" class="cls-1" d="M997.4,1271.54h0.37l0.806,1.83h0l2.547,5.75a4.862,4.862,0,0,0,4.42,2.81,4.593,4.593,0,0,0,1.32-.2l10.9-3.35a2.668,2.668,0,0,0,1.73-2.05l0.67-5.26a0.533,0.533,0,0,0-.13-0.42,0.524,0.524,0,0,0-.41-0.18h-1.5c-4.54-6.64-6.54-8.47-9.25-8.47s-4.71,1.83-9.244,8.47H997.4A0.535,0.535,0,1,0,997.4,1271.54Zm11.475-8.46c2.18,0,3.95,1.61,7.93,7.39h-15.86C1004.92,1264.69,1006.69,1263.08,1008.87,1263.08Zm-8.959,8.46h19.1l-0.14,1.08h-15.46a0.54,0.54,0,1,0,0,1.08h15.32l-0.32,2.5a1.59,1.59,0,0,1-.97,1.15l-10.9,3.35a3.75,3.75,0,0,1-4.43-2.01l-2.208-4.99h1.338a0.54,0.54,0,1,0,0-1.08h-1.814l-0.476-1.08h0.961Zm27.069,5.59a0.544,0.544,0,0,0-.68-0.36l-23.73,7.3a4.956,4.956,0,1,0,.41,1.97,4.91,4.91,0,0,0-.09-0.94l8.2-2.52,3.34,7.56a1.536,1.536,0,0,0,1.32.86h1.31a1.127,1.127,0,0,0,1.13-1.12v-9.49l8.43-2.59A0.55,0.55,0,0,0,1026.98,1277.13Zm-29.508,9.07a0.544,0.544,0,0,0,.518.38,0.44,0.44,0,0,0,.16-0.02l1.574-.49a1.738,1.738,0,1,1-.322-1.02l-1.573.48A0.536,0.536,0,0,0,997.472,1286.2Zm0.518-2.96a2.805,2.805,0,1,0,2.82,2.8,2.642,2.642,0,0,0-.02-0.29l1.05-.33a3.242,3.242,0,0,1,.05.62,3.872,3.872,0,1,1-.37-1.65l-1.05.33A2.819,2.819,0,0,0,997.99,1283.24Zm19.11,6.64a0.043,0.043,0,0,1-.04.04h-1.31a0.441,0.441,0,0,1-.32-0.21l-3.3-7.45,4.97-1.53v9.15h0Zm-4.25-20.5a0.575,0.575,0,1,0-.58-0.57A0.578,0.578,0,0,0,1012.85,1269.38Zm-1.45-2.15a0.58,0.58,0,0,0,.58-0.58,0.58,0.58,0,0,0-1.16,0A0.58,0.58,0,0,0,1011.4,1267.23Zm-5.78,1.58a0.572,0.572,0,0,0,.57-0.58,0.563,0.563,0,0,0-.57-0.57,0.572,0.572,0,0,0-.58.57A0.58,0.58,0,0,0,1005.62,1268.81Z" transform="translate(-993 -1262)"/>
</svg>
