<svg xmlns="http://www.w3.org/2000/svg" width="25" height="34" viewBox="0 0 25 34">
  <defs>
    <style>
      .cls-1 {
        fill: #323840;
        fill-rule: evenodd;
      }
    </style>
  </defs>
  <path id="icon5" class="cls-1" d="M1021.25,1459h-16.76c-0.02,0-.05.01-0.07,0.01h0c-0.02.01-.05,0.01-0.07,0.02s-0.01,0-.01.01a0.145,0.145,0,0,0-.07.02h0a0.574,0.574,0,0,1-.07.04c0,0.01,0,.01-0.01.01-0.02.02-.04,0.03-0.06,0.05h0l-5.966,5.88h0a0.18,0.18,0,0,0-.049.05c0,0.01-.007.01-0.01,0.01-0.014.02-.028,0.05-0.039,0.07h0c-0.011.02-.02,0.04-0.029,0.06s0,0.01,0,.02a0.312,0.312,0,0,0-.02.07h0a0.4,0.4,0,0,0-.008.07,0.077,0.077,0,0,0,0,.02v25.86a1.74,1.74,0,0,0,1.754,1.73h21.5a1.741,1.741,0,0,0,1.75-1.73v-30.54A1.741,1.741,0,0,0,1021.25,1459Zm-17.28,1.88v3.37a0.619,0.619,0,0,1-.63.62h-3.429Zm17.91,30.39a0.627,0.627,0,0,1-.63.63h-21.5a0.632,0.632,0,0,1-.635-0.63v-25.29h4.221a1.748,1.748,0,0,0,1.75-1.73v-4.15h16.16a0.627,0.627,0,0,1,.63.63v30.54Zm-18.54-22.94h14.32a0.555,0.555,0,1,0,0-1.11h-14.32A0.555,0.555,0,1,0,1003.34,1468.33Zm0,2.93h14.32a0.551,0.551,0,0,0,.56-0.55,0.557,0.557,0,0,0-.56-0.55h-14.32a0.557,0.557,0,0,0-.56.55A0.551,0.551,0,0,0,1003.34,1471.26Zm0,2.94h14.32a0.55,0.55,0,1,0,0-1.1h-14.32A0.55,0.55,0,1,0,1003.34,1474.2Zm0,2.94h14.32a0.557,0.557,0,0,0,.56-0.55,0.551,0.551,0,0,0-.56-0.55h-14.32a0.551,0.551,0,0,0-.56.55A0.557,0.557,0,0,0,1003.34,1477.14Zm0,2.94h14.32a0.555,0.555,0,1,0,0-1.11h-14.32A0.555,0.555,0,1,0,1003.34,1480.08Zm7.16,3.01h-7.16a0.551,0.551,0,0,0-.56.55,0.557,0.557,0,0,0,.56.55h7.16a0.557,0.557,0,0,0,.56-0.55A0.551,0.551,0,0,0,1010.5,1483.09Zm0,2.93h-7.16a0.555,0.555,0,1,0,0,1.11h7.16A0.555,0.555,0,1,0,1010.5,1486.02Zm5.07-1.76a0.845,0.845,0,1,0,.86.85A0.849,0.849,0,0,0,1015.57,1484.26Zm0-2.35a3.2,3.2,0,1,0,3.25,3.2A3.218,3.218,0,0,0,1015.57,1481.91Zm0,5.29a2.1,2.1,0,1,1,2.13-2.09A2.108,2.108,0,0,1,1015.57,1487.2Z" transform="translate(-998 -1459)"/>
</svg>
