<svg xmlns="http://www.w3.org/2000/svg" width="34" height="34" viewBox="0 0 34 34">
  <defs>
    <style>
      .cls-1 {
        fill: #323840;
        fill-rule: evenodd;
      }
    </style>
  </defs>
  <path id="icon4" class="cls-1" d="M1018.15,1361.39a2.953,2.953,0,0,0-2.87-2.39,0.593,0.593,0,0,0-.59.6,0.585,0.585,0,0,0,.59.59,1.79,1.79,0,0,1,0,3.58,0.593,0.593,0,0,0-.59.6,0.585,0.585,0,0,0,.59.59,2.944,2.944,0,0,0,2.87-2.38h7.68v4.17H994.172v-4.17h9.968a0.591,0.591,0,0,0,.58-0.6,0.583,0.583,0,0,0-.58-0.59h-1.07a1.761,1.761,0,1,1,1.65,2.38,0.591,0.591,0,0,0-.58.6,0.583,0.583,0,0,0,.58.59,2.98,2.98,0,1,0-2.87-3.57H993V1393h34v-31.61h-8.85Zm-7.56,6.56h7.03v7.16h-7.03v-7.16Zm7.03,15.51h-7.03v-7.16h7.03v7.16Zm-15.24-7.16h7.03v7.16h-7.03v-7.16Zm0-8.35h7.03v7.16h-7.03v-7.16Zm-8.208.59v-0.59h7.038v7.16h-7.038v-6.57Zm0,7.76h7.038v7.16h-7.038v-7.16Zm0,15.51v-7.16h7.038v7.16h-7.038Zm8.208,0v-7.16h7.03v7.16h-7.03Zm8.21,0v-7.16h7.03v7.16h-7.03Zm15.24,0h-7.04v-7.16h7.04v7.16Zm0-8.35h-7.04v-7.16h7.04v7.16Zm-7.04-8.35v-7.16h7.04v7.16h-7.04Zm-10.55-14.92a1.79,1.79,0,0,1,0,3.58,0.591,0.591,0,0,0-.58.6,0.583,0.583,0,0,0,.58.59,2.98,2.98,0,0,0,0-5.96,0.591,0.591,0,0,0-.58.6A0.583,0.583,0,0,0,1008.24,1360.19Zm3.52,0a1.79,1.79,0,0,1,0,3.58,0.6,0.6,0,0,0-.59.6,0.591,0.591,0,0,0,.59.59,2.98,2.98,0,0,0,0-5.96,0.6,0.6,0,0,0-.59.6A0.591,0.591,0,0,0,1011.76,1360.19Zm-0.42,22.49a0.592,0.592,0,0,0,.42.18,0.554,0.554,0,0,0,.41-0.18l1.93-1.96,1.93,1.96a0.592,0.592,0,0,0,.42.18,0.554,0.554,0,0,0,.41-0.18,0.6,0.6,0,0,0,0-.84l-1.93-1.96,1.93-1.97a0.6,0.6,0,0,0,0-.84,0.585,0.585,0,0,0-.83,0l-1.93,1.96-1.93-1.96a0.585,0.585,0,0,0-.83,0,0.6,0.6,0,0,0,0,.84l1.93,1.97-1.93,1.96A0.6,0.6,0,0,0,1011.34,1382.68Z" transform="translate(-993 -1359)"/>
</svg>
