<svg xmlns="http://www.w3.org/2000/svg" width="28" height="34" viewBox="0 0 28 34">
  <defs>
    <style>
      .cls-1 {
        fill: #323840;
        fill-rule: evenodd;
      }
    </style>
  </defs>
  <path id="icon1" class="cls-1" d="M1018.3,1063.9l-4.38-.95v-1.36a6.528,6.528,0,0,0,2.8-5.33v-2.93a2.172,2.172,0,0,0,.32-0.36h2.48v-1.1h-1.12v-1.1a8.291,8.291,0,0,0-6.79-8.05,1.123,1.123,0,0,0-1.05-.72h-1.12a1.123,1.123,0,0,0-1.05.72,8.291,8.291,0,0,0-6.79,8.05v1.1h-1.12v1.1h2.48a3.685,3.685,0,0,0,.32.37v2.92a6.528,6.528,0,0,0,2.8,5.33v1.36l-4.38.95a7.119,7.119,0,0,0-5.7,6.96V1076h28v-5.14A7.115,7.115,0,0,0,1018.3,1063.9Zm-16.7,11h-4.48v-4.04a6.011,6.011,0,0,1,4.48-5.8v9.84Zm12.59-10.77-2.09,2.73-1.53-1.49,2.86-1.4Zm-4.19.29-2.8-1.37v-0.82a6.731,6.731,0,0,0,5.6,0v0.82Zm-6.22-12.25-0.15-.3h-0.91v-1.1a7.191,7.191,0,0,1,5.6-6.92v2.54h1.12v-3.29h1.12v3.29h1.12v-2.54a7.191,7.191,0,0,1,5.6,6.92v1.1h-0.91l-0.15.3a1.463,1.463,0,0,1-1.31.8h-9.82A1.463,1.463,0,0,1,1003.78,1052.17Zm0.62,1.8a2.611,2.611,0,0,0,.69.09h9.82a2.611,2.611,0,0,0,.69-0.09v1.95l-0.75.37a5.123,5.123,0,0,1-2.25.52h-0.92a0.226,0.226,0,0,1-.21-0.15l-0.2-.6a1.346,1.346,0,0,0-2.54,0l-0.2.6a0.226,0.226,0,0,1-.21.15h-0.92a5.123,5.123,0,0,1-2.25-.52l-0.75-.37v-1.95Zm0.09,3.22,0.16,0.08a6.366,6.366,0,0,0,2.75.63h0.92a1.332,1.332,0,0,0,1.27-.89l0.2-.61a0.237,0.237,0,0,1,.42,0l0.2,0.61a1.332,1.332,0,0,0,1.27.89h0.92a6.366,6.366,0,0,0,2.75-.63l0.16-.08A5.611,5.611,0,0,1,1004.49,1057.19Zm2.08,6.77,2.86,1.41-1.53,1.49-2.09-2.73Zm2.87,10.94h-6.72v-1.09h6.72v1.09Zm0-2.19h-6.72v-7.91l1.89-.41,4.83,6.31v2.01Zm-0.86-4.96,1.42-1.39,1.42,1.39-1.42,1.85Zm8.7,7.15h-6.72v-1.09h6.72v1.09Zm0-2.19h-6.72v-2.01l4.83-6.31,1.89,0.41v7.91Zm5.6,2.19h-4.48v-9.84a6.015,6.015,0,0,1,4.48,5.8v4.04Zm-7.28-24.13h-3.37a2.672,2.672,0,0,0,.57-1.64,2.8,2.8,0,0,0-5.6,0,2.672,2.672,0,0,0,.57,1.64h-3.37v1.1h11.2v-1.1Zm-5.6,0a1.645,1.645,0,1,1,1.68-1.64A1.656,1.656,0,0,1,1010,1050.77Zm1.68,19.75h4.48v1.09h-4.48v-1.09Z" transform="translate(-996 -1042)"/>
</svg>
