<svg xmlns="http://www.w3.org/2000/svg" width="34.03" height="34" viewBox="0 0 34.03 34">
  <defs>
    <style>
      .cls-1 {
        fill: #323840;
        fill-rule: evenodd;
      }
    </style>
  </defs>
  <path id="icon2" class="cls-1" d="M1013.36,1177.92a0.555,0.555,0,0,0-.79,0,2.668,2.668,0,0,1-3.74,0,0.567,0.567,0,0,0-.8,0,0.562,0.562,0,0,0,0,.78,3.8,3.8,0,0,0,5.33,0A0.543,0.543,0,0,0,1013.36,1177.92Zm-5.98-4.71a0.557,0.557,0,0,0-.56.55v0.89a0.56,0.56,0,0,0,1.12,0v-0.89A0.557,0.557,0,0,0,1007.38,1173.21Zm6.64,0a0.557,0.557,0,0,0-.56.55v0.89a0.56,0.56,0,0,0,1.12,0v-0.89A0.557,0.557,0,0,0,1014.02,1173.21Zm3.11,8.33a0.564,0.564,0,0,0-.77.18,0.555,0.555,0,0,0,.19.76,3.512,3.512,0,0,1,1.73,3.02v6.4h-7.02v-6l2.44,1.71a0.528,0.528,0,0,0,.32.1,0.492,0.492,0,0,0,.21-0.04,0.528,0.528,0,0,0,.34-0.41l0.67-3.63a0.559,0.559,0,0,0-1.1-.2l-0.51,2.78-2.61-1.83a0.574,0.574,0,0,0-.64,0l-2.61,1.83-0.51-2.78a0.559,0.559,0,0,0-1.1.2l0.67,3.63a0.528,0.528,0,0,0,.34.41,0.558,0.558,0,0,0,.53-0.06l2.44-1.71v6h-7.02v-6.4a3.512,3.512,0,0,1,1.73-3.02,0.543,0.543,0,0,0,.18-0.76,0.552,0.552,0,0,0-.76-0.18,4.591,4.591,0,0,0-2.27,3.96v6.95a0.557,0.557,0,0,0,.56.55h16.28a0.557,0.557,0,0,0,.56-0.55v-6.95A4.591,4.591,0,0,0,1017.13,1181.54Zm-5.57-8.26a0.559,0.559,0,0,0-.56.56v1.73a0.3,0.3,0,0,1-.3.29,0.293,0.293,0,0,1-.3-0.29v-1.73a0.56,0.56,0,1,0-1.12,0v1.73a1.42,1.42,0,0,0,2.84,0v-1.73A0.559,0.559,0,0,0,1011.56,1173.28Zm9.23-.01a2.283,2.283,0,0,0-2.05-2.25l-0.04-.46h0.46a0.584,0.584,0,0,0,.43-0.2,0.553,0.553,0,0,0,.12-0.46l-0.45-2.21a0.575,0.575,0,0,0-.55-0.45h-0.12a7.634,7.634,0,0,0-1.33-3.81,0.568,0.568,0,0,0-.78-0.14,0.548,0.548,0,0,0-.15.76,6.617,6.617,0,0,1,1.14,3.19h-4.68v-5.82a6.769,6.769,0,0,1,1.98,1.02,0.6,0.6,0,0,0,.34.11,0.578,0.578,0,0,0,.45-0.22,0.558,0.558,0,0,0-.12-0.78,7.941,7.941,0,0,0-2.65-1.28v-0.72a0.557,0.557,0,0,0-.56-0.55h-3.06a0.557,0.557,0,0,0-.56.55v0.72a8,8,0,0,0-4.03,2.58,7.7,7.7,0,0,0-1.77,4.39h-0.12a0.558,0.558,0,0,0-.55.45l-0.45,2.21a0.553,0.553,0,0,0,.12.46,0.568,0.568,0,0,0,.43.2h0.46l-0.04.46a2.261,2.261,0,0,0-.43,4.42,6.315,6.315,0,0,0,.22,1.89,6.082,6.082,0,0,0,2.34,3.33l3.06,2.2a4.918,4.918,0,0,0,5.7,0l3.06-2.2a6.106,6.106,0,0,0,2.34-3.34,6.325,6.325,0,0,0,.22-1.88A2.268,2.268,0,0,0,1020.79,1173.27Zm-18.45,1.02a1.151,1.151,0,0,1-.61-1.02,1.18,1.18,0,0,1,.82-1.11Zm7.39-13.58v-0.61h1.94v7.14h-1.94v-6.53h0Zm-1.12.71v5.82h-4.68A6.763,6.763,0,0,1,1008.61,1161.42Zm-5.24,13.81,0.46-4.67h0.62V1175l-1.09,1.08A4.827,4.827,0,0,1,1003.37,1175.23Zm12.58,4.54-3.06,2.2a3.787,3.787,0,0,1-4.38,0l-3.06-2.2a5.005,5.005,0,0,1-1.81-2.4l1.77-1.75a0.552,0.552,0,0,0,.16-0.39v-4.67h1.48l0.36,1.42a0.547,0.547,0,0,0,.54.42h5.5a0.547,0.547,0,0,0,.54-0.42l0.36-1.42h1.54v4.67a0.552,0.552,0,0,0,.16.39l1.73,1.71A5.086,5.086,0,0,1,1015.95,1179.77Zm-7.75-9.21h4.99l-0.18.73h-4.62Zm9.84,5.46-1.03-1.02v-4.44h0.56l0.46,4.67A5.21,5.21,0,0,1,1018.04,1176.02Zm-15.12-6.57,0.23-1.1h15.1l0.22,1.1h-15.55Zm16.14,4.84-0.21-2.13a1.18,1.18,0,0,1,.82,1.11A1.151,1.151,0,0,1,1019.06,1174.29Zm-2.43,14.38h-2.38a0.557,0.557,0,0,0-.56.55,0.551,0.551,0,0,0,.56.55h2.38a0.551,0.551,0,0,0,.56-0.55A0.557,0.557,0,0,0,1016.63,1188.67Zm-9.48,0h-2.38a0.557,0.557,0,0,0-.56.55,0.551,0.551,0,0,0,.56.55h2.38a0.551,0.551,0,0,0,.56-0.55A0.557,0.557,0,0,0,1007.15,1188.67Zm19.5-9.95-1.69-2.85c-0.15-.27-0.27.04-0.54,0.2s-0.62.06-.47,0.33l1.73,2.88a1.445,1.445,0,0,1,0,1.45,1.481,1.481,0,0,1-1.28.72h-0.8v-1.87a0.559,0.559,0,0,0-.56-0.56,0.566,0.566,0,0,0-.56.56v1.87h-0.79a1.45,1.45,0,0,1-1.28-2.18l2.63-4.49,0.94,1.59a0.562,0.562,0,0,0,.76.2,0.547,0.547,0,0,0,.21-0.75l-1.42-2.42a0.575,0.575,0,0,0-.49-0.28,0.559,0.559,0,0,0-.48.28l-3.12,5.32a2.5,2.5,0,0,0,0,2.56,2.581,2.581,0,0,0,2.25,1.28h0.79v2.17a1.431,1.431,0,0,0-.86,1.3v3.95a1.425,1.425,0,0,0,2.85,0v-3.95a1.424,1.424,0,0,0-.87-1.3v-2.17h0.8a2.581,2.581,0,0,0,2.25-1.28A2.5,2.5,0,0,0,1026.65,1178.72Zm-3.3,11.26a0.312,0.312,0,0,1-.31.31,0.3,0.3,0,0,1-.3-0.31v-3.95a0.3,0.3,0,0,1,.3-0.31,0.312,0.312,0,0,1,.31.31v3.95Zm-21.2-8.01-0.69-4.9c0-.01-0.01-0.02-0.01-0.03a1.958,1.958,0,0,0-1.655-1.82l-0.035-.01a0.636,0.636,0,0,1-.549-0.63v-4.34a1.631,1.631,0,0,0-3.262,0v4.34a0.636,0.636,0,0,1-.549.63l-0.035.01a1.956,1.956,0,0,0-1.657,1.82l-0.006.03-0.7,4.9a0.543,0.543,0,0,0,.132.44,0.564,0.564,0,0,0,.422.19l3.8-.03c0.309,0,.269-0.22.269-0.53s0.04-.53-0.269-0.53l-3.155-.02,0.54-3.79h5.676l0.54,3.79h-3.576a0.56,0.56,0,1,0,0,1.11h4.216a0.553,0.553,0,0,0,.42-0.19A0.509,0.509,0,0,0,1002.15,1181.97Zm-7.121-5.38a0.874,0.874,0,0,1,.515-0.28l0.035-.01a1.738,1.738,0,0,0,1.489-1.72v-4.34a0.512,0.512,0,0,1,1.023,0v4.34a1.738,1.738,0,0,0,1.489,1.72l0.035,0.01a0.88,0.88,0,0,1,.515.28h-5.1Z" transform="translate(-993 -1159)"/>
</svg>
