<svg xmlns="http://www.w3.org/2000/svg" width="28" height="23" viewBox="0 0 28 23">
  <defs>
    <style>
      .cls-1 {
        fill: #f68d85;
        fill-rule: evenodd;
      }
    </style>
  </defs>
  <path id="danger" class="cls-1" d="M844.611,1584.36l-11.474-18.2a2.576,2.576,0,0,0-4.3,0l-11.473,18.2a2.31,2.31,0,0,0-.036,2.42,2.543,2.543,0,0,0,2.188,1.22h22.947a2.544,2.544,0,0,0,2.188-1.22A2.312,2.312,0,0,0,844.611,1584.36Zm-1.549,1.56a0.7,0.7,0,0,1-.6.34H819.512a0.7,0.7,0,0,1-.6-0.34,0.628,0.628,0,0,1,.01-0.66l11.474-18.2a0.709,0.709,0,0,1,1.185,0l11.474,18.2A0.628,0.628,0,0,1,843.062,1585.92Zm-12.068-13.76a1.071,1.071,0,0,0-1.233.99c0,1.92.236,4.69,0.236,6.61a0.824,0.824,0,0,0,1,.71,0.88,0.88,0,0,0,.98-0.71c0-1.92.236-4.69,0.236-6.61A1.074,1.074,0,0,0,830.994,1572.16Zm0.017,9.42a1.246,1.246,0,1,0,0,2.49A1.246,1.246,0,1,0,831.011,1581.58Z" transform="translate(-817 -1565)"/>
</svg>
