<svg xmlns="http://www.w3.org/2000/svg" width="24" height="24" viewBox="0 0 24 24">
  <defs>
    <style>
      .cls-1 {
        fill: #fed750;
        fill-rule: evenodd;
      }
    </style>
  </defs>
  <path id="icon3" class="cls-1" d="M387,581l-4.384,2.769a2.313,2.313,0,0,1-1.035-1.926h-0.774a2.321,2.321,0,0,1-2.323,2.315v0.772a2.314,2.314,0,0,1,1.433.5L375,588.58v4.771l2.323-1.467v3.081a1.935,1.935,0,0,1-1.936,1.93v0.773a1.935,1.935,0,0,1,1.936,1.929V605h19.354V591.884L399,593.351v-4.774Zm-5.806,2.337a1.208,1.208,0,1,1,0,2.416,3.125,3.125,0,0,0-.587-0.746l-0.01-.015,0,0A0.892,0.892,0,1,1,381.194,583.337Zm-4.412,13.944a2.737,2.737,0,0,0,.928-0.925,0.926,0.926,0,1,1,0,1.851A2.732,2.732,0,0,0,376.782,597.281Zm9.057,6.947h-4.645V594.193h4.645v10.035Zm10.064,0h-9.29V593.421h-6.194v10.807H378.1V599.6a1.935,1.935,0,0,1,1.935-1.93V596.9a1.934,1.934,0,0,1-1.935-1.93V591.4l8.9-5.623,2.5,1.576A3.481,3.481,0,0,1,387,588.4v0.772a3.483,3.483,0,0,1,3.484,3.473h0.774a3.473,3.473,0,0,1,1.81-3.044L395.9,591.4v12.832ZM390.871,586.7a4.277,4.277,0,0,0,2.1,2.09,4.289,4.289,0,0,0-2.1,2.092,4.285,4.285,0,0,0-2.1-2.092A4.273,4.273,0,0,0,390.871,586.7Zm7.355,5.25h0l-4.251-2.685a3.461,3.461,0,0,1,.767-0.088V588.4a3.483,3.483,0,0,1-3.484-3.474h-0.774a3.447,3.447,0,0,1-.513,1.806L387,584.859l-11.226,7.09V589l4.669-2.993a2.3,2.3,0,0,1,.364,1.238h0.774a2.321,2.321,0,0,1,2.322-2.316v-0.772a2.387,2.387,0,0,1-.4-0.036l3.5-2.208L398.226,589v2.946h0Zm-10.065,6.1h5.807v-4.632h-5.807v4.632Zm0.774-3.86h4.259v3.088h-4.259v-3.088Zm-4.645,5.018h0.775v0.772H384.29v-0.772Zm7.355-4.246h0.774v0.772h-0.774v-0.772Zm2.71,7.72h0.774v0.772h-0.774v-0.772Zm-1.549,0h0.775v0.772h-0.775v-0.772Zm-1.548,0h0.774v0.772h-0.774v-0.772Z" transform="translate(-375 -581)"/>
</svg>
