<svg xmlns="http://www.w3.org/2000/svg" width="24" height="28" viewBox="0 0 24 28">
  <defs>
    <style>
      .cls-1 {
        fill: #fed750;
        fill-rule: evenodd;
      }
    </style>
  </defs>
  <path id="icon1" class="cls-1" d="M384.34,474.89a0.7,0.7,0,0,0-.495-0.206h0a0.7,0.7,0,0,0-.49.206l-1.948,1.948a0.7,0.7,0,0,0-.2.5,0.714,0.714,0,0,0,.2.5l3.8,3.841a0.693,0.693,0,0,0,.5.206h0a0.691,0.691,0,0,0,.49-0.206l6.4-6.4a0.7,0.7,0,0,0,.2-0.5,0.712,0.712,0,0,0-.2-0.5l-1.937-1.958a0.691,0.691,0,0,0-.985,0l-3.964,3.962Zm5.821-1.082,0.951,0.962-5.411,5.409-2.813-2.844,0.957-.957,1.372,1.386a0.692,0.692,0,0,0,.986,0Zm8.412-6.028-11.305-4.74a0.675,0.675,0,0,0-.536,0l-11.305,4.74a0.7,0.7,0,0,0-.427.647v10.511a12,12,0,1,0,24,0V468.427A0.7,0.7,0,0,0,398.573,467.78Zm-0.968,11.158a10.605,10.605,0,1,1-21.21,0V468.9L387,464.448l10.605,4.449v10.041Z" transform="translate(-375 -463)"/>
</svg>
