<svg xmlns="http://www.w3.org/2000/svg" width="24" height="30" viewBox="0 0 24 30">
  <defs>
    <style>
      .cls-1 {
        fill: #fed750;
        fill-rule: evenodd;
      }
    </style>
  </defs>
  <path id="icon2" class="cls-1" d="M398.476,537.456h-1.019v-4.087a2.328,2.328,0,0,0-2.325-2.326h-0.6l1-1.284a0.525,0.525,0,0,0-.092-0.736l-2.969-2.308-1.63-4.89a0.525,0.525,0,0,0-.663-0.332l-3.095,1.034-1.823-1.417a0.523,0.523,0,0,0-.735.093l-7.641,9.84h-1.353a0.524,0.524,0,0,0-.524.525v18.907a0.523,0.523,0,0,0,.524.525h19.608a2.329,2.329,0,0,0,2.325-2.327v-4.087h1.019a0.524,0.524,0,0,0,.524-0.524V537.98A0.524,0.524,0,0,0,398.476,537.456Zm-5.275-6.413h-0.04a2.532,2.532,0,0,1-.324-2.709l1.539,1.2Zm-3.2-8.389,0.967,2.9-2.9-2.256Zm-4.982-.394,1.538,1.2a2.532,2.532,0,0,1-2.734.345Zm-1.848,2.38a3.571,3.571,0,0,0,4.226-.532l4.6,3.572a3.585,3.585,0,0,0-.08,3.363H378.2Zm13.233,24.033a1.28,1.28,0,0,1-1.277,1.279H376.048v-17.86h19.084a1.279,1.279,0,0,1,1.277,1.277v4.087h-4.955a0.524,0.524,0,0,0-.524.524v6.082a0.524,0.524,0,0,0,.524.524h4.955v4.087h0Zm1.543-5.135h-5.974v-5.033h5.974v5.033Zm-2.987-.944a1.573,1.573,0,1,0-1.572-1.573A1.574,1.574,0,0,0,394.965,542.594Zm0-2.1a0.525,0.525,0,1,1-.524.524A0.525,0.525,0,0,1,394.965,540.5Z" transform="translate(-375 -521)"/>
</svg>
