<svg xmlns="http://www.w3.org/2000/svg" width="50" height="50" viewBox="0 0 50 50">
  <defs>
    <style>
      .cls-1 {
        fill: #323840;
        fill-rule: evenodd;
      }
    </style>
  </defs>
  <path id="icon4" class="cls-1" d="M1085.64,8377.45a10.427,10.427,0,0,1-1.06-4.74v-4.52a1,1,0,0,1,.51-0.91,3.28,3.28,0,0,0,1.79-3.86,3.347,3.347,0,0,0-3.28-2.42h-29.67a1.6,1.6,0,0,0-1.38.81h-3.45v0.8h-1.86l-2.98,1.99v1.24h-6.45v1.61h6.45v1.24l2.98,1.99h1.86v0.8h3.28a1.609,1.609,0,0,0,.61.9l8.11,5.9a2.438,2.438,0,0,0,1.43.46h5.92v0.34l1.62,1.61v2.08a2.416,2.416,0,0,0,2.42,2.42h1.61v3.28a2.3,2.3,0,0,1-1.13,1.88,2.9,2.9,0,0,0-1.07,3.54,2.965,2.965,0,0,0,2.76,1.79h3.47v4.84h1.61v6.85a2.019,2.019,0,0,1-2.01,2.02h-37.1a2.02,2.02,0,0,1,0-4.04h28.23a3.625,3.625,0,1,0,0-7.25h-22.3a3.217,3.217,0,0,0-3.11-2.42h-4.03v0.8H1037v1.62h2.42v1.61H1037v1.61h2.42v0.81h4.03a3.217,3.217,0,0,0,3.11-2.42h22.3a2.015,2.015,0,0,1,0,4.03h-28.23a3.63,3.63,0,0,0,0,7.26h37.1a3.636,3.636,0,0,0,3.63-3.63v-6.85h1.61v-4.84h0.01a4.029,4.029,0,0,0,4.02-4.03v-8.9A11.569,11.569,0,0,0,1085.64,8377.45Zm-36.54-11.61h-1.62v1.61h1.62v1.61h-1.37l-1.86-1.23v-2.37l1.86-1.23h1.37v1.61Zm3.22,4.03h-1.61v-6.45h1.61v6.45Zm-8.87,30.65h-2.42v-3.23h2.42A1.615,1.615,0,0,1,1043.45,8400.52Zm30.65-16.94h-1.61a0.807,0.807,0,0,1-.81-0.81v-2.75l-1.28-1.28h2.89a0.807,0.807,0,0,1,.81.81v4.03Zm7.26,15.32h-1.62v-3.22h1.62v3.22Zm1.62-4.84h-8.32a1.346,1.346,0,0,1-1.27-.78,1.3,1.3,0,0,1,.48-1.59,3.875,3.875,0,0,0,1.84-3.22v-8.92a2.416,2.416,0,0,0-2.42-2.42h-10.76a0.751,0.751,0,0,1-.48-0.16l-8.11-5.9v-8.46h29.66a1.776,1.776,0,0,1,1.73,1.23,1.686,1.686,0,0,1-.92,1.98,2.583,2.583,0,0,0-1.44,2.37v4.52a12.119,12.119,0,0,0,1.23,5.47h0a10.044,10.044,0,0,1,1.19,4.57v8.9h0A2.411,2.411,0,0,1,1082.98,8394.06ZM1062,8373.9h3.23v1.62H1062v-1.62Zm0-2.42h3.23v1.62H1062v-1.62Zm0-2.42h3.23v1.62H1062v-1.62Zm0-2.42h3.23v1.62H1062v-1.62Zm18.55,20.17a2.42,2.42,0,1,0,2.42,2.42A2.422,2.422,0,0,0,1080.55,8386.81Zm0,3.22a0.805,0.805,0,1,1,0-1.61A0.805,0.805,0,1,1,1080.55,8390.03Zm-41.13,3.23h16.13a2.428,2.428,0,0,0,2.42-2.42v-10.49a2.428,2.428,0,0,0-2.42-2.42h-16.13a2.428,2.428,0,0,0-2.42,2.42v10.49A2.428,2.428,0,0,0,1039.42,8393.26Zm-0.81-12.91a0.8,0.8,0,0,1,.81-0.8h16.13a0.811,0.811,0,0,1,.81.8v10.49a0.82,0.82,0,0,1-.81.81h-16.13a0.813,0.813,0,0,1-.81-0.81v-10.49Zm3.23,6.46h1.61v-4.04h0.81v-1.61h-3.23v1.61h0.81v4.04Zm4.84,0h1.61v-4.04h0.81v-1.61h-3.23v1.61h0.81v4.04Zm4.84,0h1.61v-4.04h0.81v-1.61h-3.23v1.61h0.81v4.04Zm-11.29,1.61h14.51v1.61h-14.51v-1.61Z" transform="translate(-1037 -8361)"/>
</svg>
