<svg xmlns="http://www.w3.org/2000/svg" width="36" height="50" viewBox="0 0 36 50">
  <defs>
    <style>
      .cls-1 {
        fill: #323840;
        fill-rule: evenodd;
      }
    </style>
  </defs>
  <path id="icon3" class="cls-1" d="M877.475,8361H853.349c-0.035,0-.069.01-0.1,0.01,0,0.01,0,.01,0,0.01a0.375,0.375,0,0,0-.1.02,0.017,0.017,0,0,1-.018.01c-0.032.01-.063,0.03-0.093,0.04,0,0,0,0-.006.01a0.365,0.365,0,0,0-.09.05c-0.006.01-.013,0.01-0.019,0.02a0.377,0.377,0,0,0-.081.07h0l-8.6,8.64h0a0.427,0.427,0,0,0-.07.08,0.034,0.034,0,0,0-.015.02c-0.02.03-.039,0.06-0.056,0.09h0a1.053,1.053,0,0,0-.041.1,0.041,0.041,0,0,0-.007.02,0.548,0.548,0,0,0-.028.1h0c-0.006.04-.01,0.07-0.012,0.1,0,0.01,0,.02,0,0.03s0,0.02,0,.03v38.01a2.536,2.536,0,0,0,2.525,2.54h30.95a2.536,2.536,0,0,0,2.525-2.54v-44.92A2.536,2.536,0,0,0,877.475,8361Zm-24.878,2.76v4.96a0.916,0.916,0,0,1-.913.92h-4.932Zm25.791,44.7a0.916,0.916,0,0,1-.913.92h-30.95a0.916,0.916,0,0,1-.913-0.92v-37.2h6.072a2.536,2.536,0,0,0,2.525-2.54v-6.1h23.266a0.916,0.916,0,0,1,.913.92v44.92Zm-26.7-33.75h20.633a0.8,0.8,0,0,0,.8-0.8,0.814,0.814,0,0,0-.8-0.82H851.684a0.815,0.815,0,0,0-.806.82A0.8,0.8,0,0,0,851.684,8374.71Zm0,4.32h20.633a0.81,0.81,0,0,0,0-1.62H851.684A0.81,0.81,0,0,0,851.684,8379.03Zm0,4.32h20.633a0.81,0.81,0,0,0,0-1.62H851.684A0.81,0.81,0,0,0,851.684,8383.35Zm0,4.32h20.633a0.81,0.81,0,0,0,0-1.62H851.684A0.81,0.81,0,0,0,851.684,8387.67Zm0,4.32h20.633a0.81,0.81,0,0,0,0-1.62H851.684A0.81,0.81,0,0,0,851.684,8391.99ZM862,8396.42H851.684a0.81,0.81,0,0,0,0,1.62H862A0.81,0.81,0,0,0,862,8396.42Zm0,4.32H851.684a0.81,0.81,0,0,0,0,1.62H862A0.81,0.81,0,0,0,862,8400.74Zm7.308-2.59a1.24,1.24,0,1,0,1.235,1.24A1.242,1.242,0,0,0,869.308,8398.15Zm0-3.46a4.7,4.7,0,1,0,4.674,4.7A4.694,4.694,0,0,0,869.308,8394.69Zm0,7.78a3.08,3.08,0,1,1,3.062-3.08A3.074,3.074,0,0,1,869.308,8402.47Z" transform="translate(-844 -8361)"/>
</svg>
