<svg xmlns="http://www.w3.org/2000/svg" width="44" height="50" viewBox="0 0 44 50">
  <defs>
    <style>
      .cls-1 {
        fill: #323840;
        fill-rule: evenodd;
      }
    </style>
  </defs>
  <path id="icon2" class="cls-1" d="M670.183,8398.63H663.61a0.8,0.8,0,0,0-.805.8v6.52a0.8,0.8,0,0,0,.805.79h6.573a0.8,0.8,0,0,0,.805-0.79v-6.52A0.8,0.8,0,0,0,670.183,8398.63Zm-0.8,6.52h-4.963v-4.92h4.963v4.92Zm-8.988-6.52h-6.573a0.8,0.8,0,0,0-.805.8v6.52a0.8,0.8,0,0,0,.805.79h6.573a0.8,0.8,0,0,0,.805-0.79v-6.52A0.8,0.8,0,0,0,660.39,8398.63Zm-0.8,6.52h-4.963v-4.92h4.963v4.92Zm0.8-16.22h-6.573a0.8,0.8,0,0,0-.805.79v6.52a0.8,0.8,0,0,0,.805.8h6.573a0.8,0.8,0,0,0,.805-0.8v-6.52A0.8,0.8,0,0,0,660.39,8388.93Zm-0.8,6.51h-4.963v-4.92h4.963v4.92Zm-8.987,3.19h-6.574a0.8,0.8,0,0,0-.8.8v6.52a0.8,0.8,0,0,0,.8.79H650.6a0.8,0.8,0,0,0,.8-0.79v-6.52A0.8,0.8,0,0,0,650.6,8398.63Zm-0.8,6.52h-4.964v-4.92h4.964v4.92Zm30.183-22.61H673.4a0.8,0.8,0,0,0-.8.8v3.19a0.8,0.8,0,0,0,.8.8h6.574a0.8,0.8,0,0,0,.8-0.8v-3.19A0.8,0.8,0,0,0,679.976,8382.54Zm-0.8,3.19h-4.964v-1.59h4.964v1.59Zm-8.988,3.2H663.61a0.8,0.8,0,0,0-.805.79v6.52a0.8,0.8,0,0,0,.805.8h6.573a0.8,0.8,0,0,0,.805-0.8v-6.52A0.8,0.8,0,0,0,670.183,8388.93Zm-0.8,6.51h-4.963v-4.92h4.963v4.92Zm-18.78-6.51h-6.574a0.8,0.8,0,0,0-.8.79v6.52a0.8,0.8,0,0,0,.8.8H650.6a0.8,0.8,0,0,0,.8-0.8v-6.52A0.8,0.8,0,0,0,650.6,8388.93Zm-0.8,6.51h-4.964v-4.92h4.964v4.92Zm20.39-12.9H663.61a0.8,0.8,0,0,0-.805.8v3.19a0.8,0.8,0,0,0,.805.8h6.573a0.8,0.8,0,0,0,.805-0.8v-3.19A0.8,0.8,0,0,0,670.183,8382.54Zm-0.8,3.19h-4.963v-1.59h4.963v1.59Zm10.6-24.73H644.024a4.012,4.012,0,0,0-4.024,3.99v42.02a4.012,4.012,0,0,0,4.024,3.99h35.952a4.012,4.012,0,0,0,4.024-3.99v-42.02A4.012,4.012,0,0,0,679.976,8361Zm2.414,46.01a2.4,2.4,0,0,1-2.414,2.39H644.024a2.4,2.4,0,0,1-2.414-2.39v-42.02a2.4,2.4,0,0,1,2.414-2.39h35.952a2.4,2.4,0,0,1,2.414,2.39v42.02Zm-2.414-18.08H673.4a0.8,0.8,0,0,0-.8.79v16.23a0.8,0.8,0,0,0,.8.79h6.574a0.8,0.8,0,0,0,.8-0.79v-9.84a0.8,0.8,0,0,0-1.609,0v9.04h-4.964v-14.63h4.964v2.4a0.8,0.8,0,0,0,1.609,0v-3.2A0.8,0.8,0,0,0,679.976,8388.93Zm0-23.67H644.024a0.8,0.8,0,0,0-.8.79v13.04a0.8,0.8,0,0,0,.8.79H650.6a0.8,0.8,0,1,0,0-1.59h-5.769v-11.44h34.342v11.44H653.817a0.8,0.8,0,1,0,0,1.59h26.159a0.8,0.8,0,0,0,.8-0.79v-13.04A0.8,0.8,0,0,0,679.976,8365.26Zm-6.439,4.78h3.219a0.8,0.8,0,1,0,0-1.59h-3.219A0.8,0.8,0,1,0,673.537,8370.04Zm0,6.39h3.219a0.8,0.8,0,1,0,0-1.6h-3.219A0.8,0.8,0,1,0,673.537,8376.43Zm-0.805-2.93a0.8,0.8,0,0,0,1.609,0v-2.13a0.8,0.8,0,0,0-1.609,0v2.13Z" transform="translate(-640 -8361)"/>
</svg>
