<svg xmlns="http://www.w3.org/2000/svg" width="50.03" height="50" viewBox="0 0 50.03 50">
  <defs>
    <style>
      .cls-1 {
        fill: #323840;
        fill-rule: evenodd;
      }
    </style>
  </defs>
  <path id="icon5" class="cls-1" d="M1279.17,8378.46l-7.61-3.65a5.043,5.043,0,0,0,1.29-4.59,4.9,4.9,0,0,0-5.85-3.87,0.767,0.767,0,0,0-.28.12,1.957,1.957,0,0,0-.34-0.12,4.1,4.1,0,0,0-4.08,1.11l-11.84,11.46a9.424,9.424,0,0,0-2.55,3.79c-0.14.37-.26,0.75-0.37,1.12a8.83,8.83,0,0,1-1.5,3.21l-0.71-.74a2.188,2.188,0,0,0-1.58-.7,2.241,2.241,0,0,0-1.61.63l-4.45,4.3a2.316,2.316,0,0,0-.06,3.23l15.72,16.54a2.206,2.206,0,0,0,1.58.7h0.05a2.226,2.226,0,0,0,1.56-.63l2.58-2.5a0.936,0.936,0,0,0,.03-1.3,0.915,0.915,0,0,0-1.29-.02l-2.58,2.49a0.423,0.423,0,0,1-.31.12,0.441,0.441,0,0,1-.31-0.13l-3.76-3.96,5.08-4.92,3.76,3.97a0.914,0.914,0,0,0,1.29.02,0.927,0.927,0,0,0,.02-1.3l-1-1.05,6.31-5.98a0.918,0.918,0,0,0,.04-1.3,0.9,0.9,0,0,0-1.28-.04l-6.33,5.99-11.49-12.09a9.987,9.987,0,0,0,1.97-3.98c0.12-.37.23-0.71,0.35-1.06a7.785,7.785,0,0,1,2.09-3.09l11.85-11.45a2.3,2.3,0,0,1,2.31-.68,2.375,2.375,0,0,1,1.63,1.69,2.692,2.692,0,0,1-.96,2.57l-8.35,8.09a0.924,0.924,0,0,0-.03,1.29l0.64,0.68a2.744,2.744,0,0,1,.77,1.99,2.805,2.805,0,0,1-.85,1.97l-2.66,2.57a0.918,0.918,0,0,0-.03,1.3,0.9,0.9,0,0,0,.66.28,0.918,0.918,0,0,0,.63-0.25l2.66-2.58a4.567,4.567,0,0,0,1.41-3.25,4.618,4.618,0,0,0-1.27-3.31h-0.01l6.76-6.55,11.52,5.51a0.8,0.8,0,0,0,.39.09A0.912,0.912,0,0,0,1279.17,8378.46Zm-24.45,20.37-5.08,4.91-10.7-11.25a0.463,0.463,0,0,1,.01-0.63l4.45-4.3a0.423,0.423,0,0,1,.31-0.12,0.441,0.441,0,0,1,.31.13Zm15.25-25.03a0.69,0.69,0,0,0-.16.18l-1.57-.75a4.367,4.367,0,0,0,1.03-3.87,4.18,4.18,0,0,0-.52-1.21,3.149,3.149,0,0,1,2.32,2.46A3.224,3.224,0,0,1,1269.97,8373.8Zm7.54-11.31a0.908,0.908,0,0,0-.98-0.83l-25.92,2.38a2.042,2.042,0,0,0-1.82,2.21l0.16,1.72a0.9,0.9,0,0,0,.9.83h0.08a0.927,0.927,0,0,0,.83-1l-0.16-1.72a0.2,0.2,0,0,1,.05-0.14,0.179,0.179,0,0,1,.13-0.07l25.91-2.38A0.906,0.906,0,0,0,1277.51,8362.49Zm9.48,13.34-1.17-12.98a2.019,2.019,0,0,0-2.19-1.84l-2.19.2a0.927,0.927,0,0,0-.83,1,0.916,0.916,0,0,0,.99.83l2.2-.2a0.2,0.2,0,0,1,.21.17l1.17,12.99a0.162,0.162,0,0,1-.05.14,0.151,0.151,0,0,1-.13.07l-2.81.26a0.917,0.917,0,0,0,.08,1.83h0.08l2.82-.26A2.026,2.026,0,0,0,1286.99,8375.83Zm-4.32-3.23a2.936,2.936,0,0,1-.4-5.81,0.916,0.916,0,0,0-.34-1.8,4.77,4.77,0,0,0,.66,9.44h0.04A0.916,0.916,0,0,0,1282.67,8372.6Zm-24.6-4.33-2.37-1.14a2,2,0,0,0-2.68.95l-3.82,8.06a0.92,0.92,0,0,0,.43,1.23,0.891,0.891,0,0,0,.39.09,0.918,0.918,0,0,0,.82-0.53l3.82-8.06a0.207,0.207,0,0,1,.26-0.09l2.36,1.14a0.9,0.9,0,0,0,1.21-.43A0.913,0.913,0,0,0,1258.07,8368.27Zm28.57,14.45a1.98,1.98,0,0,0-1.03-1.15l-1.98-.96a0.909,0.909,0,0,0-1.22.43,0.926,0.926,0,0,0,.43,1.22l1.99,0.96a0.177,0.177,0,0,1,.09.11,0.158,0.158,0,0,1,0,.15l-5.58,11.76a0.187,0.187,0,0,1-.26.09l-15.35-7.28a0.907,0.907,0,0,0-1.21.44,0.929,0.929,0,0,0,.43,1.23l15.35,7.27a1.9,1.9,0,0,0,.86.2,2.022,2.022,0,0,0,1.82-1.15l5.58-11.77A2.031,2.031,0,0,0,1286.64,8382.72Zm-14.92-2.34A5.019,5.019,0,0,0,1267,8377a5.031,5.031,0,0,0-4.52,2.88,5.084,5.084,0,0,0,2.36,6.74,4.911,4.911,0,0,0,2.16.49A5.041,5.041,0,0,0,1271.72,8380.38Zm-1.84,3.07a3.215,3.215,0,0,1-2.88,1.83,3.172,3.172,0,0,1-1.38-.32,3.221,3.221,0,0,1,1.38-6.12,3.2,3.2,0,0,1,3.01,2.15A3.231,3.231,0,0,1,1269.88,8383.45Zm12.25,0.66a4.67,4.67,0,0,0-5.87,2.42,4.817,4.817,0,0,0,1.65,6.03,0.914,0.914,0,0,0,1-1.53,2.962,2.962,0,0,1-1.01-3.71,2.878,2.878,0,0,1,3.61-1.49A0.914,0.914,0,0,0,1282.13,8384.11Z" transform="translate(-1236.97 -8361)"/>
</svg>
