<svg xmlns="http://www.w3.org/2000/svg" width="44" height="50" viewBox="0 0 44 50">
  <defs>
    <style>
      .cls-1 {
        fill: #323840;
        fill-rule: evenodd;
      }
    </style>
  </defs>
  <path id="icon1" class="cls-1" d="M458.538,8401.83a3.335,3.335,0,1,0,3.385,3.34A3.367,3.367,0,0,0,458.538,8401.83Zm0,5a1.665,1.665,0,1,1,1.693-1.66A1.675,1.675,0,0,1,458.538,8406.83ZM456,8365.17h3.385a0.846,0.846,0,0,0,.846-0.84,0.837,0.837,0,0,0-.846-0.83H456a0.837,0.837,0,0,0-.846.83A0.846,0.846,0,0,0,456,8365.17Zm5.923,0h0.846a0.846,0.846,0,0,0,.846-0.84,0.837,0.837,0,0,0-.846-0.83h-0.846a0.837,0.837,0,0,0-.846.83A0.846,0.846,0,0,0,461.923,8365.17ZM489,8371H473.769v-6.33a3.705,3.705,0,0,0-3.727-3.67H448.727a3.705,3.705,0,0,0-3.727,3.67v42.66a3.705,3.705,0,0,0,3.727,3.67h21.314a3.706,3.706,0,0,0,3.728-3.67V8388.5H489V8371Zm-40.273-8.33h21.314a2.022,2.022,0,0,1,2.036,2V8366H446.692v-1.33A2.022,2.022,0,0,1,448.727,8362.67Zm21.315,46.66H448.727a2.022,2.022,0,0,1-2.035-2V8401h25.385v6.33A2.022,2.022,0,0,1,470.042,8409.33Zm2.035-10H446.692v-31.66h25.385V8371H456.846v17.5h3.385v5.83l7.9-5.83h3.949v10.83Zm15.231-12.5H467.564l-5.641,4.17v-4.17h-3.385v-14.16h28.77v14.16Zm-24.539-8.33h8.462a0.837,0.837,0,0,0,.846-0.83,0.846,0.846,0,0,0-.846-0.84h-8.462a0.846,0.846,0,0,0-.846.84A0.837,0.837,0,0,0,462.769,8378.5Zm-0.846,3.33a0.846,0.846,0,0,0,.846.84h20.308a0.846,0.846,0,0,0,.846-0.84,0.837,0.837,0,0,0-.846-0.83H462.769A0.837,0.837,0,0,0,461.923,8381.83Z" transform="translate(-445 -8361)"/>
</svg>
