<svg xmlns="http://www.w3.org/2000/svg" width="50" height="50" viewBox="0 0 50 50">
  <defs>
    <style>
      .cls-1 {
        fill: #323840;
        fill-rule: evenodd;
      }
    </style>
  </defs>
  <path id="icon6" class="cls-1" d="M1484.15,8398.76a6.511,6.511,0,0,0-3.44-1.19,61.489,61.489,0,0,1-9.3-6.98l-5.36-5.36,3.25-3.64a5.472,5.472,0,0,0,1.94.67,5.873,5.873,0,0,0,1.17.09,1.69,1.69,0,0,1,1.5.58,1.327,1.327,0,0,0-.5,1.08,1.8,1.8,0,0,0,.5,1.25l2.91,2.92a2.284,2.284,0,0,0,1.75.75,2.07,2.07,0,0,0,1.75-.84l5.92-5.91a2.27,2.27,0,0,0,.75-1.75,2.393,2.393,0,0,0-.75-1.75l-2.92-2.91a1.615,1.615,0,0,0-1.17-.5,2.084,2.084,0,0,0-1.16.5,1.393,1.393,0,0,1-.67-1.42,3.838,3.838,0,0,0-.16-1.25,5.871,5.871,0,0,0-1.67-3.25l-3-3a13.552,13.552,0,0,0-4.83-3.58c-4.83-2.25-9.75-1.83-16.92,1.42a0.742,0.742,0,0,0-.49.91,0.8,0.8,0,0,0,.83.67h1.08c3.67,0,5.58,0,8.92,3.33a3.961,3.961,0,0,1,.19,5.34,0.77,0.77,0,0,0-.44.24l-3.71,4.13-2.79-2.79a36.052,36.052,0,0,1-6.9-9.23,6.625,6.625,0,0,0-1.93-4.35,6.864,6.864,0,0,0-5.42-1.92,1.061,1.061,0,0,0-.58.42,0.739,0.739,0,0,0,0,.83l2.33,4.17a2.923,2.923,0,0,1-2.83,1.66l-2.42-3.99a0.732,0.732,0,0,0-.66-0.42,0.621,0.621,0,0,0-.67.33,6.712,6.712,0,0,0,5.12,10.31,0.142,0.142,0,0,0,.04.02,36.244,36.244,0,0,1,9.25,6.91l3.05,2.98L1438,8404a3.531,3.531,0,0,0-1,2.5,3.332,3.332,0,0,0,1,2.42l1.17,1.16a3.536,3.536,0,0,0,2.33.92,3.444,3.444,0,0,0,2.41-1l17.69-19.8,5.14,5.14a67.04,67.04,0,0,1,6.99,9.32,6.62,6.62,0,0,0,1.93,4.26,6.533,6.533,0,0,0,4.66,1.91h0.67a0.821,0.821,0,0,0,.66-0.41,0.756,0.756,0,0,0,0-.84l-2.41-4.08a3.037,3.037,0,0,1,2.91-1.66l2.34,3.99a0.732,0.732,0,0,0,.66.42,1.083,1.083,0,0,0,.75-0.42A6.623,6.623,0,0,0,1484.15,8398.76Zm-18.99-30.49c-2.67-2.58-4.67-3.42-6.92-3.66,4.75-1.5,8.25-1.42,11.75.16,2,0.83,2.67,1.5,4.42,3.25l3,3a3.931,3.931,0,0,1,1.16,2.33,4.452,4.452,0,0,1,.09,1,3.052,3.052,0,0,0,1.08,2.58,1.8,1.8,0,0,0,1.25.5,1.367,1.367,0,0,0,1.16-.5l2.92,2.92a0.8,0.8,0,0,1,0,1.16l-5.91,5.92a0.815,0.815,0,0,1-1.17,0l-2.92-2.92a1.144,1.144,0,0,0,.42-1.16,1.841,1.841,0,0,0-.5-1.25,3.075,3.075,0,0,0-2.58-1.09,4.944,4.944,0,0,1-1-.08,3.687,3.687,0,0,1-2.34-1.17l-3.58-3.58A5.5,5.5,0,0,0,1465.16,8368.27Zm-26.16-2,1.75,3a0.833,0.833,0,0,0,.66.42h0.42a4.747,4.747,0,0,0,4.5-2.59l0.17-.41a0.646,0.646,0,0,0,0-.75l-1.84-3.17a4.96,4.96,0,0,1,2.67,1.42,5.181,5.181,0,0,1,1.44,3.37,1.248,1.248,0,0,0-.02.21,4.726,4.726,0,0,1-.14,1.13A4.983,4.983,0,1,1,1439,8366.27Zm14.83,13.83a36.9,36.9,0,0,0-7.67-6.17,9.223,9.223,0,0,0,1.34-.66,6.6,6.6,0,0,0,2.58-3.25,38.7,38.7,0,0,0,6.08,7.66l2.86,2.86-2.24,2.51Zm-11.08,28.65a1.71,1.71,0,0,1-2.42.08l-1.16-1.08a1.609,1.609,0,0,1-.5-1.16,1.778,1.778,0,0,1,.58-1.34l0.47-.53,1.19,1.2a0.764,0.764,0,0,0,.59.25,0.743,0.743,0,0,0,.58-0.25,0.815,0.815,0,0,0,0-1.17l-1.26-1.26,1.1-1.23,1.33,1.33a0.8,0.8,0,0,0,1.16,0,0.8,0.8,0,0,0,0-1.17l-1.39-1.39,21.43-23.97,3.5,3.5-3.44,3.84a1.174,1.174,0,0,0-.27.2l-3.33,3.74a0.854,0.854,0,0,0-.2.32Zm19.99-19.82,2.28-2.55,5.39,5.38a48.7,48.7,0,0,0,7.83,6.08,6.571,6.571,0,0,0-1.5.75,6.344,6.344,0,0,0-2.28,2.53,0.106,0.106,0,0,1-.02.05l-0.09.18a2.718,2.718,0,0,0-.11.25,1.417,1.417,0,0,0-.08.18c0,0.01-.01.02-0.01,0.03-0.03.06-.05,0.13-0.08,0.19-0.47-.69-0.93-1.35-1.36-1.96l1.11-1.12a0.82,0.82,0,0,0-1.16-1.16l-0.93.92c-0.35-.47-0.68-0.91-1.01-1.32l0.77-.77a0.827,0.827,0,0,0-1.17-1.17l-0.63.64c-0.61-.74-1.18-1.37-1.7-1.89Zm22.33,16.66-1.75-3a0.865,0.865,0,0,0-.67-0.42h-0.41a4.61,4.61,0,0,0-4.5,2.58l-0.17.42a0.646,0.646,0,0,0,0,.75l1.84,3.16a4.879,4.879,0,0,1-2.67-1.41,5.208,5.208,0,0,1-1.44-3.3,1.231,1.231,0,0,0,.02-0.2,5.035,5.035,0,0,1,.92-2.88,5.265,5.265,0,0,1,1.33-1.29,4.685,4.685,0,0,1,2.75-.83,5,5,0,0,1,2.83.92A5.081,5.081,0,0,1,1485.07,8405.59Z" transform="translate(-1437 -8361)"/>
</svg>
