<svg xmlns="http://www.w3.org/2000/svg" width="70" height="70" viewBox="0 0 70 70">
  <defs>
    <style>
      .cls-1 {
        fill: #fff;
        fill-rule: evenodd;
      }
    </style>
  </defs>
  <path id="zoom" class="cls-1" d="M1369.86,3662a25.128,25.128,0,0,0-18.55,42.08l-2.58,2.59a5.3,5.3,0,0,0-6.58.71l-15.6,15.6a5.282,5.282,0,1,0,7.47,7.47l15.6-15.6a5.3,5.3,0,0,0,.59-6.76l2.55-2.55A25.131,25.131,0,1,0,1369.86,3662Zm-21.7,46.84a3.208,3.208,0,0,1,.95,2.28,3.17,3.17,0,0,1-.43,1.6l-4.4-4.4a3.17,3.17,0,0,1,1.6-.43A3.208,3.208,0,0,1,1348.16,3708.84Zm-14.74,19.31-4.57-4.57,13.89-13.89,4.57,4.57Zm-5.42.85a3.218,3.218,0,0,1-.52-3.89l4.41,4.41A3.218,3.218,0,0,1,1328,3729Zm41.86-18.78a23.085,23.085,0,1,1,23.09-23.08A23.114,23.114,0,0,1,1369.86,3710.22Zm0-43.84a20.755,20.755,0,1,0,20.76,20.76A20.778,20.778,0,0,0,1369.86,3666.38Zm0,39.46a18.7,18.7,0,1,1,18.7-18.7A18.723,18.723,0,0,1,1369.86,3705.84Zm15.69-23.38a16.29,16.29,0,0,0-11.01-11.01,1.023,1.023,0,1,0-.59,1.96,14.3,14.3,0,0,1,9.64,9.64,1.026,1.026,0,0,0,.98.73,0.925,0.925,0,0,0,.29-0.04,1.023,1.023,0,0,0,.69-1.28h0Z" transform="translate(-1325 -3662)"/>
</svg>
